HIERARCHY
ROOT RootJoint
{
    OFFSET   0.000000   0.000000   0.000000
    CHANNELS 6 Xposition Yposition Zposition Xrotation Yrotation Zrotation
    JOINT pelvis_lowerback
    {
        OFFSET   0.000000   0.093605   0.000000
        CHANNELS 3 Xrotation Yrotation Zrotation
        JOINT lowerback_torso
        {
            OFFSET   0.000000   0.100000   0.000000
            CHANNELS 3 Xrotation Yrotation Zrotation
            JOINT torso_head
            {
                OFFSET   0.000000   0.282350   0.000000
                CHANNELS 3 Xrotation Yrotation Zrotation
                End Site
                {
                    OFFSET   0.000000   0.192650   0.000000
                }
            }
            JOINT rTorso_Clavicle
            {
                OFFSET  -0.001000   0.157500   0.000000
                CHANNELS 3 Xrotation Yrotation Zrotation
                JOINT rShoulder
                {
                    OFFSET  -0.117647   0.000000   0.000000
                    CHANNELS 3 Xrotation Yrotation Zrotation
                    JOINT rElbow
                    {
                        OFFSET  -0.245000   0.000000   0.000000
                        CHANNELS 3 Xrotation Yrotation Zrotation
                        JOINT rWrist
                        {
                            OFFSET  -0.240000   0.000000   0.000000
                            CHANNELS 3 Xrotation Yrotation Zrotation
                            End Site
                            {
                                OFFSET  -0.116353  -0.002500   0.000000
                            }
                        }
                    }
                }
            }
            JOINT lTorso_Clavicle
            {
                OFFSET   0.001000   0.157500   0.000000
                CHANNELS 3 Xrotation Yrotation Zrotation
                JOINT lShoulder
                {
                    OFFSET   0.117647   0.000000   0.000000
                    CHANNELS 3 Xrotation Yrotation Zrotation
                    JOINT lElbow
                    {
                        OFFSET   0.245000   0.000000   0.000000
                        CHANNELS 3 Xrotation Yrotation Zrotation
                        JOINT lWrist
                        {
                            OFFSET   0.240000   0.000000   0.000000
                            CHANNELS 3 Xrotation Yrotation Zrotation
                            End Site
                            {
                                OFFSET   0.116353  -0.002500   0.000000
                            }
                        }
                    }
                }
            }
        }
    }
    JOINT rHip
    {
        OFFSET  -0.100000  -0.051395   0.000000
        CHANNELS 3 Xrotation Yrotation Zrotation
        JOINT rKnee
        {
            OFFSET   0.000000  -0.410000   0.000000
            CHANNELS 3 Xrotation Yrotation Zrotation
            JOINT rAnkle
            {
                OFFSET   0.000000  -0.390000   0.000000
                CHANNELS 3 Xrotation Yrotation Zrotation
                JOINT rToeJoint
                {
                    OFFSET   0.000000  -0.050000   0.130000
                    CHANNELS 3 Xrotation Yrotation Zrotation
                    End Site
                    {
                        OFFSET  -0.010000   0.002000   0.060000
                    }
                }
            }
        }
    }
    JOINT lHip
    {
        OFFSET   0.100000  -0.051395   0.000000
        CHANNELS 3 Xrotation Yrotation Zrotation
        JOINT lKnee
        {
            OFFSET   0.000000  -0.410000   0.000000
            CHANNELS 3 Xrotation Yrotation Zrotation
            JOINT lAnkle
            {
                OFFSET   0.000000  -0.390000   0.000000
                CHANNELS 3 Xrotation Yrotation Zrotation
                JOINT lToeJoint
                {
                    OFFSET   0.000000  -0.050000   0.130000
                    CHANNELS 3 Xrotation Yrotation Zrotation
                    End Site
                    {
                        OFFSET   0.010000   0.002000   0.060000
                    }
                }
            }
        }
    }
}
MOTION
Frames: 17
Frame Time:   0.008333
 -2.376719   0.925631   3.975860   0.000000   0.000000   0.000000   0.000000   0.000000   0.000000   0.000000   0.000000   0.000000   0.000000   0.000000   0.000000   0.000000   0.000000   0.000000   0.000000   0.000000   0.000000   0.000000   0.000000   0.000000   0.000000   0.000000   0.000000   0.000000   0.000000   0.000000   0.000000   0.000000   0.000000   0.000000   0.000000   0.000000   0.000000   0.000000   0.000000   0.000000   0.000000   0.000000   0.000000   0.000000   0.000000   0.000000   0.000000   0.000000   0.000000   0.000000   0.000000   0.000000   0.000000   0.000000   0.000000   0.000000   0.000000   0.000000   0.000000   0.000000   0.000000   0.000000   0.000000
 -2.377060   0.925754   3.973799   0.428014  -0.184785  -0.033993  -0.023898   0.064468   0.052386  -0.090000  -0.092940  -0.179418  -0.260748   0.192396   0.107462   0.105734  -0.374663  -0.449395   0.536490   0.156385   2.602343   0.041729   2.373115  -0.020529   0.190640  -0.994632  -1.991826   0.188038   0.286344  -0.020998   0.885960   0.284062  -1.742015   0.033382  -1.966621   0.024328   0.218066   0.801081   2.170954  -1.598743  -0.682098   0.211600   2.260701  -0.003912  -0.016973   0.743300  -0.269504   0.622754  -0.499956   0.003492   0.005000  -1.273087   0.800888  -0.000236   2.212818   0.001058   0.011888  -1.634060   1.204276   0.384766   0.368860  -0.001101   0.005870
 -2.377593   0.926780   3.971101   0.748808  -0.557904  -0.196618   0.103940   0.162875   0.176666  -0.056135  -0.144742  -0.351818  -0.490058   0.375379   0.206991   0.208160  -0.606119  -0.284404   1.028981   0.466758   5.555360   0.094552   4.692680  -0.039035   0.413747  -1.240582  -3.304858   0.378788   0.482549  -0.672317   1.720944   0.447498  -3.853228   0.077866  -3.869251   0.045420   0.471418   1.100161   3.767029  -3.267616  -1.399851   0.533799   4.269110  -0.007687  -0.032071   0.863133  -0.570765   1.017489  -2.197606   0.011297   0.024683  -2.413799   1.605612   0.110147   4.507399   0.003472   0.018133  -3.159568   2.342187   0.785364   0.693348  -0.001701   0.009176
 -2.378248   0.928012   3.968184   1.011097  -0.946364  -0.340465   0.291673   0.227353   0.222572   0.048311  -0.206582  -0.540175  -0.690607   0.543907   0.300336   0.304209  -0.729532   0.287649   1.464609   0.856225   8.626972   0.143880   6.890153  -0.052718   0.642304  -1.192914  -3.906668   0.560824   0.568302  -1.681025   2.499863   0.495884  -6.130806   0.121443  -5.673172   0.061741   0.723448   1.167765   4.677926  -4.915811  -2.077924   0.856977   6.301496  -0.012312  -0.043387   1.237130  -0.833664   1.467713  -4.176881   0.019575   0.043203  -3.412475   2.349249   0.167510   6.693265   0.006660   0.021074  -4.589985   3.392200   1.188746   0.990210  -0.001945   0.011020
 -2.378975   0.929067   3.965216   1.257947  -1.365598  -0.459213   0.498150   0.275580   0.205467   0.177217  -0.275566  -0.754230  -0.873073   0.700552   0.383934   0.393187  -0.780521   1.098215   1.846116   1.291825  11.698895   0.183813   8.960066  -0.061582   0.868375  -1.006881  -4.011366   0.730102   0.572525  -2.894874   3.223886   0.452632  -8.460637   0.158776  -7.377397   0.073681   0.972600   1.092257   5.088281  -6.514015  -2.753399   1.181197   8.255677  -0.017224  -0.051662   1.694240  -1.109878   1.923457  -6.148033   0.025972   0.059056  -4.295712   3.043849   0.168081   8.746421   0.009927   0.021311  -5.934121   4.361427   1.591163   1.252857  -0.001953   0.011696
 -2.379722   0.929755   3.962273   1.509962  -1.840242  -0.572479   0.706493   0.317426   0.154356   0.308796  -0.344737  -0.986329  -1.042640   0.846716   0.459301   0.473698  -0.783915   2.036609   2.177021   1.751142  14.698342   0.212614  10.903966  -0.066253   1.087375  -0.748475  -3.800379   0.884407   0.524267  -4.220583   3.894469   0.342741 -10.775605   0.187819  -8.982033   0.081989   1.216440   0.926655   5.161014  -8.053151  -3.419055   1.499699  10.093476  -0.021472  -0.057485   2.153171  -1.395134   2.351163  -7.985357   0.029261   0.071161  -5.082869   3.694302   0.133827  10.671089   0.012846   0.019258  -7.197130   5.256324   1.989747   1.486650  -0.001830   0.011555
 -2.380472   0.930007   3.959375   1.775338  -2.356797  -0.699954   0.911403   0.344945   0.086643   0.434909  -0.419879  -1.225534  -1.201451   0.982891   0.529157   0.545799  -0.761601   3.034562   2.462242   2.215266  17.585122   0.230619  12.724903  -0.067523   1.296011  -0.457293  -3.396763   1.022715   0.441200  -5.595142   4.513377   0.183896 -13.033294   0.208392 -10.489605   0.087447   1.452462   0.705360   5.013432  -9.528115  -4.045052   1.825242  11.802137  -0.024678  -0.060585   2.568729  -1.653628   2.746453  -9.629314   0.029964   0.077958  -5.792305   4.301553   0.085551  12.475368   0.015245   0.015887  -8.383414   6.082410   2.381743   1.697788  -0.001641   0.010935
 -2.381129   0.929352   3.956117   1.812295  -2.685322  -0.991282   1.507150   0.307780   0.153280   0.510637  -0.535587  -1.340983  -1.393476   0.974536   0.490001   0.784653  -0.713201   3.482351   2.934651   2.707963  20.274074   0.237201  14.538420  -0.076009   1.414851  -0.196860  -2.378593   1.058249   0.261563  -6.471308   4.941264  -0.162829 -15.428081   0.222132 -12.080804   0.091552   1.612168   0.505360   4.257024 -11.128519  -4.720566   2.261328  14.299206  -0.031094  -0.065246   2.724704  -2.023905   2.825881 -11.481317   0.025606   0.084160  -6.202868   4.927663   0.199373  13.911173   0.016441   0.015708  -9.625554   6.898197   2.798539   1.957377  -0.001498   0.011332
 -2.381707   0.928070   3.952877   1.798284  -2.835850  -1.342266   2.121225   0.196347   0.260883   0.632114  -0.723627  -1.420372  -1.559107   0.963572   0.461353   1.001234  -0.664150   3.741438   3.352310   3.185845  22.671781   0.232934  16.235850  -0.080276   1.539585   0.085315  -1.451422   1.064672   0.008146  -7.178829   5.309488  -0.566935 -17.586774   0.225633 -13.598490   0.093682   1.775477   0.145754   3.537510 -12.678574  -5.400421   2.681323  16.823753  -0.035621  -0.064317   2.847364  -2.410852   2.876879 -13.280265   0.020658   0.085288  -6.542652   5.511850   0.358891  15.209872   0.017418   0.016755 -10.796146   7.652539   3.205487   2.187506  -0.001300   0.011521
 -2.382230   0.926301   3.949748   1.772481  -2.889143  -1.723480   2.712878   0.046312   0.379059   0.761807  -0.951852  -1.482631  -1.705575   0.953946   0.439899   1.196681  -0.626488   3.888445   3.721587   3.637128  24.837585   0.222042  17.819425  -0.080769   1.657903   0.354008  -0.692459   1.051067  -0.273506  -7.760477   5.627970  -0.986159 -19.537999   0.222059 -15.029861   0.093575   1.939888  -0.288720   2.960478 -14.147948  -6.049403   3.073691  19.263852  -0.037923  -0.059760   2.956278  -2.776839   2.917796 -14.996553   0.015894   0.082549  -6.843274   6.058831   0.534652  16.409903   0.018201   0.017823 -11.895952   8.349498   3.600810   2.400078  -0.001084   0.011495
 -2.382700   0.924123   3.946752   1.746669  -2.899692  -2.122756   3.271786  -0.120527   0.496678   0.886001  -1.196628  -1.536246  -1.838968   0.945448   0.421586   1.375906  -0.603104   3.962067   4.050930   4.058115  26.810686   0.207286  19.294677  -0.078460   1.768664   0.595155  -0.066921   1.025030  -0.556712  -8.245583   5.905650  -1.398544 -21.312634   0.213858 -16.372551   0.091593   2.099283  -0.745089   2.506611 -15.536338  -6.662122   3.435484  21.580521  -0.038272  -0.053687   3.055167  -3.118219   2.951770 -16.598770   0.011557   0.077477  -7.111600   6.570619   0.713671  17.525442   0.018747   0.018362 -12.928621   8.993343   3.983594   2.596485  -0.000868   0.011224
 -2.383106   0.921593   3.943884   1.722593  -2.907688  -2.538461   3.796469  -0.288759   0.613056   1.001729  -1.441485  -1.584502  -1.962185   0.937934   0.404794   1.541793  -0.592732   3.984890   4.346490   4.449041  28.617334   0.190505  20.668202  -0.074221   1.872463   0.805514   0.458854   0.992878  -0.826641  -8.657426   6.150333  -1.792300 -22.936261   0.202795 -17.627806   0.088241   2.251038  -1.194282   2.144700 -16.850627  -7.242822   3.756227  23.765544  -0.036919  -0.047702   3.144476  -3.447886   2.974438 -18.068305   0.007453   0.071468  -7.348861   7.049045   0.892352  18.565561   0.019035   0.018166 -13.897901   9.588152   4.353185   2.777672  -0.000658   0.010722
 -2.383484   0.918774   3.941121   1.698937  -2.920742  -2.968532   4.290203  -0.456254   0.720392   1.109995  -1.681767  -1.628626  -2.076773   0.931023   0.389474   1.697064  -0.594373   3.976268   4.613481   4.811006  30.280273   0.172953  21.946576  -0.068802   1.970024   0.985446   0.910628   0.957994  -1.078347  -9.010540   6.367566  -2.162971 -24.426356   0.190142 -18.799066   0.083968   2.394615  -1.621922   1.853077 -18.092508  -7.792852   4.076758  25.835028  -0.035047  -0.041934   3.217233  -3.735796   3.003662 -19.422311   0.004455   0.064805  -7.559424   7.494886   1.070197  19.537157   0.019073   0.017403 -14.807202  10.137512   4.708858   2.945733  -0.000464   0.010070
 -2.384162   0.915188   3.938254   1.706138  -2.755635  -3.386069   4.790302  -0.584894   0.669375   1.202665  -1.892924  -1.555209  -2.234940   0.965700   0.464485   1.768005  -0.745330   3.808569   4.915850   5.098215  31.691307   0.151914  23.085686  -0.063062   2.000718   1.158854   1.676098   0.811028  -1.347142  -8.943683   6.565869  -2.703561 -25.637921   0.173254 -19.967210   0.078845   2.457433  -2.038484   0.946011 -19.346514  -8.228255   4.345962  27.942920  -0.031644  -0.032237   2.931080  -4.127701   3.045076 -20.295816   0.002498   0.055149  -7.709650   7.422062   1.356249  20.023216   0.016096   0.014190 -15.403550  10.126260   4.912227   3.064672  -0.000374   0.008203
 -2.384948   0.911191   3.935278   1.730286  -2.494448  -3.814310   5.289459  -0.709236   0.609909   1.289177  -2.109368  -1.459818  -2.382306   1.005292   0.532756   1.827516  -0.902591   3.537130   5.192183   5.348669  32.918761   0.131235  24.139240  -0.057780   2.029179   1.264288   2.300579   0.641429  -1.631694  -8.684189   6.719341  -3.224766 -26.617256   0.154477 -21.070459   0.073029   2.515456  -2.505169   0.234418 -20.564787  -8.656703   4.639003  29.984373  -0.028371  -0.022350   2.529640  -4.469865   3.064042 -20.969202   0.001476   0.045580  -7.891098   7.305393   1.779053  20.386876   0.013143   0.011881 -15.960984  10.105401   5.100431   3.186115  -0.000403   0.006791
 -2.384991   0.909969   3.932736   1.545404  -2.298955  -3.576360   5.934074  -0.804392   0.069515   1.452464  -2.304251  -1.603293  -2.518968   1.044021   0.570311   1.870561  -1.016000   3.427499   5.431342   5.602471  34.098225   0.114598  25.114044  -0.053262   2.061601   1.300116   2.749034   0.462975  -1.923753  -8.460793   6.840981  -3.713174 -27.459289   0.137690 -22.082627   0.067202   2.573005  -2.879417  -0.182069 -21.542525  -8.927969   4.176837  31.706204  -0.024245  -0.018303   2.427652  -4.850363   3.113686 -20.016553   0.002632   0.032454  -8.439955   7.230877   1.581924  21.569131   0.011335   0.010063 -16.246949  10.020503   5.197477   2.595292   0.000051   0.005436
 -2.384880   0.909231   3.930910   1.353379  -2.228320  -3.534981   6.447536  -0.837204  -0.187031   1.615648  -2.440167  -1.698134  -2.624744   1.083059   0.590268   1.911432  -1.137504   3.169481   5.656233   5.831124  35.132993   0.099018  26.028008  -0.047938   2.093685   1.347862   3.199829   0.327980  -2.150667  -8.207886   6.967855  -4.148174 -28.267251   0.121283 -23.032066   0.061035   2.624836  -3.251864  -0.641276 -22.399133  -9.208682   3.836880  33.342735  -0.019923  -0.016872   2.393046  -5.294435   3.146266 -18.494404   0.005862   0.017489  -8.802515   7.214591   1.574501  22.466970   0.009517   0.008179 -16.560155   9.975347   5.277445   2.549815   0.000059   0.004348
